<mxfile host="Electron" agent="Mozilla/5.0 (X11; Linux x86_64) AppleWebKit/537.36 (KHTML, like Gecko) draw.io/24.7.5 Chrome/126.0.6478.183 Electron/31.3.0 Safari/537.36" version="24.7.5">
  <diagram name="第 1 页" id="huckOj3Etd9BhcJPRhfS">
    <mxGraphModel dx="4780" dy="2747" grid="1" gridSize="10" guides="1" tooltips="1" connect="1" arrows="1" fold="1" page="0" pageScale="1" pageWidth="827" pageHeight="1169" math="0" shadow="0">
      <root>
        <mxCell id="0" />
        <mxCell id="1" parent="0" />
        <mxCell id="S-xIBfuS6F-5xv-ArkTA-1" value="RegFile" style="rounded=0;whiteSpace=wrap;html=1;labelPosition=center;verticalLabelPosition=top;align=center;verticalAlign=bottom;spacingTop=0;spacingBottom=-20;fontFamily=Ubuntu mono;" vertex="1" parent="1">
          <mxGeometry x="120" y="80" width="160" height="200" as="geometry" />
        </mxCell>
        <mxCell id="S-xIBfuS6F-5xv-ArkTA-2" value="dataW" style="text;strokeColor=none;align=center;fillColor=none;html=1;verticalAlign=middle;whiteSpace=wrap;rounded=0;fontFamily=Ubuntu mono;" vertex="1" parent="1">
          <mxGeometry x="120" y="115" width="40" height="10" as="geometry" />
        </mxCell>
        <mxCell id="S-xIBfuS6F-5xv-ArkTA-3" value="rsW" style="text;strokeColor=none;align=center;fillColor=none;html=1;verticalAlign=middle;whiteSpace=wrap;rounded=0;fontFamily=Ubuntu mono;" vertex="1" parent="1">
          <mxGeometry x="120" y="155" width="30" height="10" as="geometry" />
        </mxCell>
        <mxCell id="S-xIBfuS6F-5xv-ArkTA-4" value="rs2" style="text;strokeColor=none;align=center;fillColor=none;html=1;verticalAlign=middle;whiteSpace=wrap;rounded=0;fontFamily=Ubuntu mono;" vertex="1" parent="1">
          <mxGeometry x="120" y="195" width="30" height="10" as="geometry" />
        </mxCell>
        <mxCell id="S-xIBfuS6F-5xv-ArkTA-5" value="RegRW" style="text;strokeColor=none;align=center;fillColor=none;html=1;verticalAlign=middle;whiteSpace=wrap;rounded=0;fontFamily=Ubuntu mono;" vertex="1" parent="1">
          <mxGeometry x="135" y="265" width="50" height="10" as="geometry" />
        </mxCell>
        <mxCell id="S-xIBfuS6F-5xv-ArkTA-6" value="" style="endArrow=none;html=1;rounded=0;fontFamily=Ubuntu mono;" edge="1" parent="1">
          <mxGeometry width="50" height="50" relative="1" as="geometry">
            <mxPoint x="230" y="280" as="sourcePoint" />
            <mxPoint x="270" y="280" as="targetPoint" />
            <Array as="points">
              <mxPoint x="250" y="260" />
            </Array>
          </mxGeometry>
        </mxCell>
        <mxCell id="S-xIBfuS6F-5xv-ArkTA-7" value="data1" style="text;strokeColor=none;align=center;fillColor=none;html=1;verticalAlign=middle;whiteSpace=wrap;rounded=0;fontFamily=Ubuntu mono;" vertex="1" parent="1">
          <mxGeometry x="240" y="135" width="40" height="10" as="geometry" />
        </mxCell>
        <mxCell id="S-xIBfuS6F-5xv-ArkTA-8" value="data2" style="text;strokeColor=none;align=center;fillColor=none;html=1;verticalAlign=middle;whiteSpace=wrap;rounded=0;fontFamily=Ubuntu mono;" vertex="1" parent="1">
          <mxGeometry x="240" y="215" width="40" height="10" as="geometry" />
        </mxCell>
        <mxCell id="S-xIBfuS6F-5xv-ArkTA-9" value="rs1" style="text;strokeColor=none;align=center;fillColor=none;html=1;verticalAlign=middle;whiteSpace=wrap;rounded=0;fontFamily=Ubuntu mono;" vertex="1" parent="1">
          <mxGeometry x="120" y="235" width="30" height="10" as="geometry" />
        </mxCell>
      </root>
    </mxGraphModel>
  </diagram>
</mxfile>
